
      <svg data-logo="logo" xmlns="http://www.w3.org/2000/svg" viewBox="0 0 225 43">
        <g id="logogram" transform="translate(0, 1) rotate(0) "><path fill-rule="evenodd" clip-rule="evenodd" d="M8.84356 3.79785C7.4129 4.79821 6.1192 5.98096 4.99615 7.31238C9.58545 6.88631 15.416 7.58203 22.1852 10.9667C29.4138 14.5809 35.2346 14.7031 39.2856 13.9217C38.918 12.8088 38.4552 11.7392 37.9071 10.7224C33.2698 11.2115 27.3248 10.5641 20.3964 7.09996C15.9968 4.90016 12.1186 3.99399 8.84356 3.79785ZM35.1982 6.86663C31.5361 2.77498 26.2142 0.199982 20.2908 0.199982C18.5513 0.199982 16.8635 0.422089 15.2545 0.839462C17.4337 1.43407 19.7487 2.30397 22.1852 3.52225C27.2578 6.05851 31.6372 6.87514 35.1982 6.86663ZM40.1517 17.8281C35.2577 18.7945 28.4996 18.596 20.3964 14.5444C12.8208 10.7566 6.79126 10.8043 2.72473 11.708C2.51483 11.7546 2.30987 11.8036 2.10986 11.8546C1.57745 13.0125 1.15247 14.2301 0.847534 15.4945C1.17322 15.4075 1.50976 15.3248 1.85699 15.2476C6.7904 14.1513 13.7609 14.1989 22.1852 18.4111C29.7609 22.1989 35.7904 22.1512 39.857 21.2475C39.9963 21.2166 40.1336 21.1846 40.2686 21.1516C40.2834 20.8363 40.2908 20.519 40.2908 20.2C40.2908 19.3975 40.2436 18.606 40.1517 17.8281ZM39.6156 25.3723C34.7691 26.2196 28.2078 25.8944 20.3964 21.9888C12.8208 18.201 6.79126 18.2487 2.72473 19.1524C1.82208 19.3529 1.01007 19.5972 0.293763 19.8551C0.29181 19.9698 0.290833 20.0848 0.290833 20.2C0.290833 31.2457 9.24512 40.2 20.2908 40.2C29.5479 40.2 37.3361 33.9109 39.6156 25.3723Z" fill="#FFFFFF"/></g>
        <g id="logotype" transform="translate(47, 2)"><path fill="#ffffff" d="M14.16 32L8.48 32L8.48 8.65L19.86 8.65Q23.82 8.65 26.06 10.49Q28.30 12.33 28.30 16.07L28.30 16.07Q28.30 17.61 27.67 19.10Q27.04 20.59 25.81 21.66Q24.59 22.73 22.73 23.04L22.73 23.04L22.38 21.11L29.49 32L22.28 32L16.43 21.81L18.95 23.95L14.16 23.95L14.16 32ZM14.16 13.03L14.16 19.78L18.91 19.78Q20.42 19.78 21.30 18.98Q22.17 18.17 22.17 16.32L22.17 16.32Q22.17 14.71 21.38 13.87Q20.59 13.03 19.16 13.03L19.16 13.03L14.16 13.03ZM38.48 32L33.23 32L33.23 14.53L38.45 14.53L38.48 32ZM38.52 11.87L33.13 11.87L33.13 7.85L38.52 7.85L38.52 11.87ZM49.68 32L44.47 32L44.47 18.28L41.84 18.28L41.84 14.29L44.50 14.29L44.50 13.87Q44.50 12.15 44.85 10.93Q45.20 9.70 45.83 8.88Q46.46 8.06 47.30 7.60Q48.14 7.15 49.16 6.96Q50.17 6.76 51.26 6.76L51.26 6.76Q51.82 6.76 52.48 6.85Q53.15 6.94 53.57 7.11L53.57 7.11L53.57 11.73Q53.25 11.35 52.87 11.14Q52.48 10.93 51.82 10.93L51.82 10.93Q51.36 10.93 50.98 11.03Q50.59 11.14 50.31 11.38Q50.03 11.63 49.87 12.08Q49.72 12.54 49.72 13.24L49.72 13.24L49.72 14.29L53.57 14.29L53.57 18.28L49.68 18.28L49.68 32ZM63.47 32L58.26 32L58.26 18.28L55.63 18.28L55.63 14.29L58.29 14.29L58.29 13.87Q58.29 12.15 58.64 10.93Q58.99 9.70 59.62 8.88Q60.25 8.06 61.09 7.60Q61.93 7.15 62.95 6.96Q63.96 6.76 65.05 6.76L65.05 6.76Q65.61 6.76 66.27 6.85Q66.94 6.94 67.36 7.11L67.36 7.11L67.36 11.73Q67.04 11.35 66.66 11.14Q66.27 10.93 65.61 10.93L65.61 10.93Q65.15 10.93 64.77 11.03Q64.38 11.14 64.10 11.38Q63.82 11.63 63.66 12.08Q63.51 12.54 63.51 13.24L63.51 13.24L63.51 14.29L67.36 14.29L67.36 18.28L63.47 18.28L63.47 32ZM76.07 32L70.82 32L70.82 14.53L76.03 14.53L76.07 32ZM76.11 11.87L70.72 11.87L70.72 7.85L76.11 7.85L76.11 11.87ZM80.73 32L80.73 15.79Q81.39 15.44 82.48 15.08Q83.56 14.71 84.86 14.43Q86.15 14.15 87.46 13.97Q88.78 13.80 89.90 13.80L89.90 13.80Q92.28 13.80 93.96 14.41Q95.64 15.02 96.53 16.39Q97.42 17.75 97.42 20.10L97.42 20.10L97.42 32L92.21 32L92.21 21.15Q92.21 20.48 92.01 19.92Q91.82 19.36 91.44 18.96Q91.05 18.56 90.39 18.33Q89.72 18.10 88.78 18.10L88.78 18.10Q87.97 18.10 87.17 18.30Q86.36 18.49 85.94 18.70L85.94 18.70L85.94 32L80.73 32ZM107.40 32L102.15 32L102.15 14.53L107.36 14.53L107.40 32ZM107.43 11.87L102.04 11.87L102.04 7.85L107.43 7.85L107.43 11.87ZM119.30 32.70L119.30 32.70Q116.22 32.70 114.71 31.25Q113.21 29.80 113.21 27.13L113.21 27.13L113.21 18.28L110.62 18.28L110.62 14.29L113.21 14.29L113.21 9.42L118.67 9.42L118.67 14.29L122.55 14.29L122.55 18.28L118.67 18.28L118.67 26.47Q118.67 27.38 119.05 27.82Q119.44 28.25 120.35 28.25L120.35 28.25Q120.87 28.25 121.50 28.04Q122.13 27.84 122.55 27.52L122.55 27.52L122.55 32Q121.82 32.38 120.96 32.54Q120.10 32.70 119.30 32.70ZM130.36 38.86L130.36 38.86Q129.48 38.86 128.64 38.69Q127.80 38.51 127.21 38.23L127.21 38.23L127.21 33.99Q127.77 34.20 128.25 34.29Q128.75 34.38 129.27 34.38L129.27 34.38Q130.15 34.38 130.79 33.98Q131.44 33.58 131.86 32.61Q132.28 31.65 132.53 30.00L132.53 30.00L132.63 32.98L125.04 14.29L131.02 14.29L135.05 26.71L134.52 26.71L138.51 14.29L144.11 14.29L137.15 32.28Q136.20 34.73 135.10 36.16Q134.00 37.60 132.81 38.23Q131.62 38.86 130.36 38.86ZM150.76 32L145.41 32L154.23 8.65L160.42 8.65L168.68 32L162.87 32L155.42 9.98L158.18 9.74L150.76 32ZM162.66 26.96L150.38 26.96L151.53 22.80L162.14 22.80L162.66 26.96ZM176.80 32L171.55 32L171.55 14.53L176.77 14.53L176.80 32ZM176.84 11.87L171.45 11.87L171.45 7.85L176.84 7.85L176.84 11.87Z"/></g>
        
      </svg>
    